<?xml version="1.0" standalone="no"?>
<!DOCTYPE svg PUBLIC "-//W3C//DTD SVG 20010904//EN"
 "http://www.w3.org/TR/2001/REC-SVG-20010904/DTD/svg10.dtd">
<svg version="1.0" xmlns="http://www.w3.org/2000/svg"
 width="512.000000pt" height="512.000000pt" viewBox="0 0 512.000000 512.000000"
 preserveAspectRatio="xMidYMid meet">
<metadata>
Created by potrace 1.16, written by Peter Selinger 2001-2019
</metadata>
<g transform="translate(0.000000,512.000000) scale(0.114541,-0.155623)"
fill="#000000" stroke="none">
<path d="M1275 3238 c-11 -6 -34 -23 -51 -38 -18 -16 -50 -30 -75 -34 -24 -4
-62 -18 -85 -31 -46 -27 -115 -98 -138 -144 -16 -29 -15 -35 5 -102 14 -48 20
-85 16 -116 -4 -42 -2 -48 25 -71 16 -14 27 -30 24 -37 -2 -7 -28 -46 -57 -86
-29 -41 -79 -124 -110 -186 l-56 -112 -64 53 c-93 77 -93 76 -85 150 l6 64
-37 31 c-21 18 -49 34 -61 38 -46 11 -152 -88 -152 -142 0 -14 24 -46 67 -88
89 -87 110 -111 156 -177 22 -30 54 -71 73 -90 l33 -35 -19 -76 c-10 -42 -23
-135 -29 -207 -10 -120 -9 -174 4 -299 l4 -42 -203 -3 -203 -3 -49 -30 c-57
-35 -119 -121 -149 -205 -18 -50 -20 -89 -23 -422 l-3 -368 613 0 613 0 104
-70 c57 -39 109 -70 115 -70 6 0 27 -10 46 -21 58 -36 176 -79 319 -117 l136
-35 230 -1 c236 -1 249 1 435 48 134 34 351 136 461 216 l67 49 499 3 c489 3
499 3 538 25 61 33 110 90 152 178 l38 80 3 372 4 373 -314 0 -313 0 3 191 3
192 29 36 c58 72 85 184 100 408 6 87 13 170 16 186 7 33 4 33 -86 5 -60 -19
-70 -25 -70 -45 0 -47 -72 -179 -91 -167 -4 2 -31 52 -59 109 -43 90 -102 182
-191 298 l-21 27 21 0 c19 0 21 6 21 68 0 64 3 72 36 115 36 46 63 125 46 136
-5 3 -16 20 -25 37 -21 41 -83 90 -144 113 -167 64 -199 59 -309 -50 l-71 -70
-69 35 c-175 88 -354 135 -585 157 -240 22 -514 -25 -746 -126 l-51 -23 -43
50 c-62 74 -114 108 -163 108 -23 0 -50 -6 -61 -12z m1180 -174 c159 -25 361
-97 474 -169 35 -21 40 -29 32 -44 -11 -20 -50 -38 -91 -43 -24 -3 -25 -5 -23
-83 3 -171 90 -295 208 -295 32 0 38 4 50 34 8 19 19 38 25 41 6 4 18 24 26
45 24 59 38 59 164 0 27 -12 160 -217 160 -246 0 -4 -27 27 -59 68 -65 81 -91
98 -153 98 -37 0 -40 -2 -34 -22 3 -13 9 -66 12 -118 6 -90 5 -98 -20 -147
-33 -67 -33 -81 5 -132 85 -119 221 -203 328 -205 51 -1 61 -4 65 -21 8 -28 7
-248 0 -312 l-7 -53 -356 0 c-355 0 -356 0 -416 25 -46 18 -60 29 -59 44 0 14
-8 22 -25 25 -58 12 -643 77 -654 73 -7 -2 -25 -41 -42 -86 l-29 -81 -93 0
-93 0 0 29 c0 44 -27 110 -72 178 -46 67 -35 64 -145 47 -33 -5 -33 -6 -33
-60 0 -60 -17 -110 -46 -136 -27 -24 -125 -48 -219 -53 l-80 -5 130 35 c74 21
138 44 149 55 13 12 21 37 23 72 6 81 2 83 -113 69 -171 -21 -163 -18 -157
-56 5 -31 3 -35 -30 -49 -49 -20 -393 -126 -411 -126 -27 0 -36 269 -15 415
l11 75 38 10 c41 11 160 86 160 101 0 18 -30 214 -35 228 -4 11 -13 7 -37 -15
-30 -28 -29 -25 19 68 50 96 157 248 174 248 13 0 41 -60 35 -76 -3 -7 -22
-21 -43 -31 -34 -16 -40 -24 -51 -72 -15 -61 -9 -112 14 -132 13 -10 22 -9 51
6 48 26 133 123 133 152 0 46 31 99 86 149 l56 50 -11 40 c-6 21 -11 65 -11
97 0 50 2 57 20 57 31 0 50 -41 59 -125 5 -42 13 -81 18 -85 4 -5 23 -2 41 5
52 23 76 88 68 184 -3 42 -9 90 -12 106 -5 28 -2 31 48 52 255 108 518 140
793 97z m-1945 -1739 l0 -54 -117 -3 -118 -3 -3 -67 -3 -68 76 0 c59 0 75 3
75 14 0 11 -14 16 -47 18 l-48 3 -3 43 -3 42 85 0 c80 0 87 -2 102 -25 26 -41
29 -96 6 -149 l-21 -46 -156 0 -156 0 5 113 c3 61 5 128 5 148 1 21 10 48 22
63 20 26 21 26 160 26 l139 0 0 -55z m130 33 c0 -13 9 -42 20 -65 19 -42 20
-43 70 -43 l51 0 -3 -42 -3 -43 -63 -3 c-45 -2 -71 2 -88 13 -30 19 -72 101
-83 160 l-8 45 53 0 c49 0 54 -2 54 -22z m233 -45 c4 -38 7 -119 7 -181 l0
-112 -162 2 -163 3 0 45 0 45 115 5 115 5 3 128 3 127 38 0 38 0 6 -67z m235
55 c9 -9 12 -9 12 0 0 9 20 12 71 10 103 -4 106 -11 114 -205 l5 -153 -44 0
-45 0 -3 123 -3 122 -32 3 -33 3 0 -125 0 -126 -45 0 -45 0 0 125 0 125 -35 0
-35 0 0 -125 0 -125 -44 0 -44 0 3 73 c2 39 4 120 4 180 l1 107 93 0 c59 0 97
-4 105 -12z m452 -48 l0 -60 80 0 80 0 0 60 0 60 40 0 40 0 0 -175 0 -175 -40
0 -39 0 -3 58 -3 57 -77 3 -78 3 0 -61 c0 -53 -2 -60 -19 -60 -11 0 -29 12
-40 26 -19 24 -21 40 -21 175 l0 149 40 0 40 0 0 -60z m390 -55 c0 -134 1
-135 99 -135 l61 0 0 125 0 125 45 0 45 0 0 -175 0 -175 -144 0 c-144 0 -145
0 -165 26 -19 24 -21 40 -21 175 l0 149 40 0 40 0 0 -115z m620 83 c17 -29 20
-51 20 -175 l0 -143 -40 0 -40 0 0 100 c0 55 1 101 2 103 1 1 -4 12 -11 25
-11 21 -18 23 -84 20 l-72 -3 -3 -32 -3 -33 80 0 81 0 0 -40 0 -40 -80 0 -80
0 0 -50 0 -50 -45 0 -45 0 0 83 c0 46 3 125 6 175 l7 92 144 0 143 0 20 -32z
m410 -13 l0 -45 -70 0 -70 0 0 -130 0 -130 -45 0 -44 0 -3 128 -3 127 -57 3
-58 3 0 44 0 45 175 0 175 0 0 -45z m110 -68 c0 -75 4 -117 12 -125 7 -7 40
-12 80 -12 l68 0 0 125 0 125 45 0 45 0 0 -175 0 -175 -144 0 c-144 0 -145 0
-165 26 -19 24 -21 40 -21 175 l0 149 40 0 40 0 0 -113z m402 -14 l3 -127 53
3 52 2 0 -50 0 -51 -73 0 c-66 0 -76 3 -98 26 -23 24 -24 33 -27 175 l-3 149
45 0 45 0 3 -127z m416 80 l-3 -46 -77 2 c-76 2 -78 2 -88 -24 -5 -14 -10 -51
-10 -81 l0 -54 90 0 90 0 0 -50 0 -50 -125 0 -125 0 0 149 c0 135 2 151 21
175 20 25 24 26 125 26 l105 0 -3 -47z m402 -55 c0 -140 -9 -203 -32 -228 -17
-18 -31 -20 -158 -20 l-140 0 0 146 c0 131 2 149 21 175 l20 29 145 0 144 0 0
-102z m-3430 -342 c0 -35 -3 -78 -6 -95 -6 -28 -10 -31 -45 -31 l-39 0 0 64 0
63 -120 8 c-118 7 -120 7 -120 31 l0 24 165 0 165 0 0 -64z m110 -1 l0 -65 35
0 35 0 0 65 0 65 45 0 45 0 0 -65 0 -65 35 0 35 0 0 65 0 65 45 0 46 0 -7 -77
c-10 -115 -3 -112 -215 -112 l-179 0 -1 52 c0 28 -2 71 -4 95 l-4 42 45 0 44
0 0 -65z m1434 5 c76 0 82 1 83 21 2 28 3 28 44 31 l34 3 3 -75 c4 -108 0
-110 -183 -110 -105 0 -144 3 -147 13 -2 6 -6 47 -7 89 l-3 77 44 3 c40 3 43
1 46 -24 l3 -28 83 0z m916 -41 l0 -89 -45 0 -45 0 0 65 0 66 -77 -3 -78 -3
-3 -62 -3 -63 -39 0 c-21 0 -40 4 -42 10 -1 5 -1 42 0 81 4 66 5 71 31 82 18
8 76 11 164 9 l137 -3 0 -90z m257 88 c0 -1 3 -11 5 -22 3 -18 -3 -20 -54 -23
l-58 -3 0 -64 0 -65 -45 0 -45 0 0 73 c0 103 17 116 135 109 33 -2 61 -5 62
-5z m306 3 c4 0 7 -11 7 -25 0 -25 -1 -25 -90 -25 l-90 0 0 -28 c0 -44 16 -52
102 -52 77 0 78 0 78 -25 l0 -25 -103 0 c-138 0 -147 6 -147 105 l0 74 38 3
c29 2 154 1 205 -2z m-3391 -17 c22 -20 23 -42 2 -71 -14 -20 -23 -22 -105
-22 -82 0 -89 1 -89 20 0 20 19 25 78 20 12 -1 22 3 22 9 0 7 -29 11 -76 11
l-75 0 3 -32 3 -33 118 -3 117 -3 0 -29 0 -30 -143 0 c-173 0 -174 0 -182 108
l-6 72 157 0 c132 0 160 -3 176 -17z m1048 -13 l0 -31 78 3 c76 3 77 3 80 31
3 25 7 27 45 27 l42 0 -3 -90 -3 -90 -40 0 c-37 0 -39 2 -39 30 l0 30 -80 0
-80 0 0 -30 c0 -28 -2 -30 -40 -30 l-40 0 0 80 c0 85 8 99 58 100 18 0 22 -5
22 -30z m640 -60 l0 -90 -45 0 -45 0 0 65 0 66 -77 -3 -78 -3 -3 -62 -3 -63
-39 0 -40 0 0 80 c0 65 3 81 18 89 9 6 83 11 165 11 l147 0 0 -90z m640 25 l0
-65 70 0 c68 0 70 -1 70 -25 l0 -25 -175 0 -175 0 0 25 c0 24 3 25 60 25 l60
0 0 65 0 65 45 0 45 0 0 -65z m1451 49 c8 -10 15 -48 17 -90 l4 -74 -144 0
c-185 0 -188 2 -188 106 l0 74 149 0 c125 0 151 -3 162 -16z m-3511 -74 c0
-17 -7 -20 -50 -20 -38 0 -54 -5 -70 -22 -11 -12 -20 -28 -20 -35 0 -9 -15
-13 -50 -13 -43 0 -50 3 -50 19 0 11 15 36 34 55 33 36 34 36 120 36 79 0 86
-2 86 -20z m545 -157 c11 -11 26 -13 51 -9 42 8 74 0 74 -19 0 -11 24 -14 115
-14 64 0 124 -5 136 -11 15 -9 24 -8 35 1 19 16 171 14 190 -2 10 -8 18 -8 27
-1 12 10 44 12 283 12 127 1 120 6 123 -96 1 -36 -3 -57 -16 -73 -18 -21 -21
-22 -308 -21 -159 1 -297 1 -305 1 -80 -5 -367 2 -374 9 -6 6 -14 6 -20 1 -13
-11 -37 -14 -88 -12 -37 1 -38 2 -38 41 0 38 -2 40 -30 40 -28 0 -30 -2 -30
-40 l0 -40 -65 0 -65 0 0 119 c0 86 3 121 13 124 6 3 72 5 144 6 106 0 136 -3
148 -16z m1291 9 c7 -4 14 -18 16 -32 2 -14 9 -24 17 -22 15 3 371 5 386 2 21
-5 35 1 35 14 0 8 15 16 38 20 55 9 59 8 81 -15 15 -16 31 -21 61 -20 69 3 93
3 170 1 41 -1 80 -1 85 0 6 1 38 2 73 1 l62 -1 0 -45 c0 -45 0 -45 -36 -45
l-36 0 4 -47 3 -48 -40 -5 c-22 -3 -96 -3 -163 0 -68 3 -126 3 -129 0 -8 -8
-137 1 -150 11 -7 7 -12 6 -15 -3 -6 -17 -414 -14 -434 3 -10 8 -14 8 -14 0 0
-7 -30 -11 -90 -11 -119 0 -130 10 -130 116 0 82 10 110 43 124 27 11 148 12
163 2z m210 -349 c-65 -33 -234 -88 -336 -110 -117 -24 -409 -25 -530 0 -97
19 -228 61 -322 104 l-63 28 630 5 c347 3 639 3 649 1 14 -3 7 -10 -28 -28z"/>
<path d="M2558 2854 c-3 -3 -32 -12 -65 -21 -132 -34 -262 -124 -366 -254 -70
-87 -157 -243 -157 -280 0 -14 15 -56 34 -94 43 -89 162 -270 169 -258 3 5 20
47 38 94 26 69 32 98 31 159 -1 41 -2 84 -4 95 -3 16 5 20 51 27 103 15 186
65 226 133 10 17 13 17 64 0 62 -20 82 -14 136 46 45 51 65 122 65 235 0 118
-6 124 -131 124 -47 0 -88 -3 -91 -6z"/>
<path d="M1429 2591 c-24 -17 -55 -44 -67 -60 -54 -73 -35 -134 63 -204 73
-53 110 -60 126 -24 10 23 11 23 179 19 93 -3 179 -2 193 2 18 4 33 26 65 97
23 51 41 93 40 95 -2 1 -43 12 -93 24 -60 15 -139 24 -235 29 -126 5 -150 9
-181 29 -20 12 -38 22 -41 22 -2 0 -25 -13 -49 -29z"/>
<path d="M4070 1200 l0 -70 59 0 c89 0 91 2 91 76 l0 64 -75 0 -75 0 0 -70z"/>
<path d="M1050 630 l0 -100 38 0 37 0 -3 45 -4 45 46 0 c34 0 46 4 46 15 0 11
-12 15 -45 15 -41 0 -45 2 -45 25 0 23 3 25 51 25 36 0 49 4 47 13 -3 8 -32
13 -86 15 l-82 3 0 -101z"/>
<path d="M1568 672 l-58 -3 0 -69 0 -70 35 0 35 0 0 60 c0 57 1 60 25 60 24 0
25 -3 25 -60 l0 -60 35 0 35 0 0 58 c0 31 -4 62 -8 68 -9 14 -52 20 -124 16z"/>
<path d="M1747 664 c-12 -12 -8 -109 5 -122 18 -18 168 -16 168 2 0 11 -9 13
-34 9 -45 -7 -86 3 -86 22 0 12 14 15 61 15 l60 0 -3 38 -3 37 -80 3 c-45 1
-84 0 -88 -4z"/>
<path d="M1964 656 c-3 -8 -4 -27 -2 -43 3 -26 7 -28 48 -31 25 -2 49 -7 54
-12 13 -13 -38 -24 -79 -17 -27 4 -33 3 -28 -9 4 -10 23 -14 72 -14 83 0 104
13 99 60 -3 35 -4 35 -55 38 -29 2 -53 7 -53 13 0 10 8 12 69 9 29 -1 41 2 37
9 -11 17 -155 14 -162 -3z"/>
<path d="M2164 656 c-3 -8 -4 -27 -2 -43 3 -26 7 -28 48 -31 25 -2 49 -7 54
-12 13 -13 -39 -23 -80 -15 -28 5 -35 3 -32 -7 6 -17 130 -23 158 -8 17 9 20
19 18 48 l-3 37 -52 3 c-29 2 -53 7 -53 11 0 15 24 19 69 14 30 -4 41 -2 37 6
-11 17 -155 14 -162 -3z"/>
<path d="M2452 718 c-7 -7 -12 -43 -12 -90 0 -93 8 -100 102 -96 76 4 92 25
21 30 l-48 3 -3 68 -3 67 50 0 c41 0 49 3 45 15 -8 19 -134 21 -152 3z"/>
<path d="M2670 668 c-33 -12 -38 -89 -8 -125 16 -19 168 -18 168 1 0 11 -9 13
-34 9 -45 -7 -86 3 -86 22 0 12 14 15 61 15 l60 0 -3 38 -3 37 -68 5 c-38 3
-77 2 -87 -2z"/>
<path d="M2860 600 l0 -70 35 0 35 0 0 60 c0 57 1 60 25 60 24 0 25 -3 25 -60
l0 -60 35 0 35 0 0 54 c0 86 0 86 -101 86 l-89 0 0 -70z"/>
<path d="M3265 659 c-11 -18 -7 -100 6 -115 17 -20 169 -20 169 0 0 11 -10 14
-41 10 -49 -6 -79 2 -79 22 0 11 15 14 61 14 l60 0 -3 38 -3 37 -82 3 c-53 2
-84 -1 -88 -9z"/>
<path d="M3935 2798 c-16 -6 -37 -14 -45 -19 -8 -5 -43 -23 -77 -39 -51 -24
-67 -28 -88 -20 -68 26 -135 -3 -171 -71 -23 -45 16 -161 58 -173 57 -15 153
-5 245 24 51 17 112 30 136 30 57 0 92 19 92 50 0 21 -5 26 -32 28 -27 3 -34
9 -48 47 -25 63 -11 99 38 103 49 4 48 28 0 41 -45 13 -67 12 -108 -1z"/>
</g>
</svg>
